<svg width="81" height="40" viewBox="0 0 81 40" fill="none" xmlns="http://www.w3.org/2000/svg">
<path d="M6.31572 8.59853C5.81612 7.35653 6.03301 5.92845 6.49321 4.72738C6.97741 3.46353 7.82051 2.20314 9.08064 1.53845C9.14316 2.8703 8.72723 4.18614 8.27276 5.37268C7.86406 6.43991 7.36259 7.57691 6.5345 8.45953C6.40726 9.1283 6.30975 9.79522 6.24117 10.4591C6.51563 9.75776 6.96065 9.11853 7.51594 8.60453C8.23084 7.94268 9.2943 7.43199 10.2926 7.73399C10.0002 8.81337 9.3337 9.84807 8.54439 10.5739C7.92312 11.1452 7.10299 11.8773 6.13697 11.9061C6.09718 12.883 6.11967 13.851 6.20185 14.8058C6.33813 14.1071 6.63013 13.4491 7.05204 12.9591C7.63162 12.2858 8.49099 11.4631 9.5885 11.6008C9.52857 12.6932 9.08308 13.8125 8.46268 14.6536C7.96968 15.322 7.31886 16.1738 6.39507 16.3939C6.54299 17.3321 6.74903 18.2548 7.01043 19.1577C7.01295 18.4664 7.16905 17.7878 7.47874 17.2436C7.91518 16.4761 8.59495 15.5191 9.69372 15.4442C9.85478 16.516 9.63655 17.6876 9.19632 18.6195C8.84448 19.3643 8.37539 20.3141 7.52034 20.7071C7.8794 21.6785 8.3043 22.6228 8.79148 23.5341C8.62043 22.7486 8.62727 21.9208 8.82969 21.1761C9.10863 20.1493 9.80106 19.0708 10.9127 18.7578C11.3057 19.8913 11.2515 21.1564 11.0232 22.3085C10.8353 23.2571 10.4662 24.3713 9.63875 24.9875C10.1797 25.8414 10.7782 26.661 11.4308 27.4408C11.0802 26.676 10.9059 25.8396 10.9994 25.0738C11.1356 23.9583 11.4561 22.7649 12.621 22.1701C13.2819 23.2855 13.435 24.5368 13.4911 25.7728C13.5365 26.7719 13.3894 28.0043 12.6799 28.8171C13.4603 29.6108 14.3023 30.3535 15.2016 31.0384C14.621 30.3099 14.2145 29.455 14.1284 28.6095C14.0068 27.415 14.0662 26.1 15.15 25.2234C16.0768 26.1703 16.6299 27.5648 16.901 28.7761C17.1407 29.847 17.3909 31.1145 16.8202 32.1685C17.9648 32.8992 19.1866 33.5431 20.4784 34.0883C19.5694 33.4547 18.8253 32.5854 18.4708 31.6878C18.0063 30.5113 17.7189 29.1094 18.6239 27.9311C19.8363 28.6907 20.7273 29.9867 21.4294 31.1687C22.0317 32.1829 22.6553 33.5828 22.3459 34.7907C23.0612 35.0281 23.7949 35.2365 24.5461 35.4144L24.5015 35.5948C23.7474 35.4162 23.0108 35.2071 22.2927 34.969C21.7895 36.4234 20.1413 36.9038 18.8083 37.116C16.9091 37.4182 14.6476 36.8326 13.0262 35.6529C13.882 34.4699 15.628 34.3499 16.9446 34.2594L16.9618 34.2582C18.4041 34.1591 19.9641 34.2915 21.4146 34.6601C19.739 34.0362 18.1711 33.2518 16.7254 32.3295L16.7041 32.3625C15.9118 33.619 14.3213 33.668 13.0728 33.5885C11.3786 33.4807 9.42265 32.4731 8.29061 31.0802C9.35541 30.1664 10.9281 30.4221 12.1468 30.6203L12.1527 30.6212C13.5128 30.8424 14.999 31.3248 16.2465 32.0677C16.1277 31.9761 16.0114 31.8793 15.8984 31.7778C14.6854 30.9318 13.5665 29.9856 12.5512 28.9539C12.5394 28.9655 12.5275 28.9769 12.5154 28.9883C11.5282 29.9598 10.0903 29.7054 8.96818 29.3892C7.46655 28.9661 5.90923 27.6898 5.16293 26.2245C6.31942 25.5906 7.70208 26.1129 8.77756 26.5261C9.95795 26.9795 11.2068 27.7049 12.1671 28.6296C12.0681 28.5075 11.9737 28.3798 11.8844 28.2478C10.9918 27.2624 10.1889 26.2072 9.48304 25.0941L9.44765 25.1158C8.3308 25.8208 7.0654 25.3102 6.0625 24.8081C4.70272 24.1274 3.61001 22.6315 3.13785 21.1602C4.34412 20.7823 5.53592 21.5241 6.46239 22.1115C7.47567 22.754 8.50208 23.6703 9.20662 24.7211C9.15487 24.6176 9.10667 24.5118 9.06223 24.4039C8.38529 23.2487 7.81021 22.0359 7.34466 20.7778L7.32067 20.7858L7.31871 20.7865C6.30322 21.1641 5.17236 20.5771 4.43511 19.9332C3.41042 19.0385 2.68818 17.6628 2.51887 16.3189C3.57761 16.1848 4.57509 16.986 5.25706 17.6694C6.04205 18.4559 6.74659 19.3855 7.17975 20.4181C7.14813 20.3059 7.121 20.192 7.0982 20.0769C6.70405 18.8947 6.40545 17.6755 6.20861 16.429L6.19328 16.4308L6.18809 16.4317C5.11448 16.607 4.12188 15.8086 3.52885 15.0338C2.69683 13.9465 2.26792 12.4416 2.37543 11.0777C3.44486 11.1508 4.25919 12.146 4.78726 12.951C5.39846 13.8829 5.9053 14.9376 6.1273 16.041C6.12054 15.9532 6.11652 15.8649 6.11511 15.7764C5.95209 14.5078 5.89397 13.2131 5.94713 11.9025L5.94407 11.9024C4.85253 11.8639 4.04583 10.8726 3.62935 9.9933C3.03341 8.73499 2.93747 7.14445 3.33524 5.80399C4.37558 6.08961 4.95555 7.25691 5.29787 8.15545C5.69257 9.19145 5.96805 10.3214 5.97025 11.4448C6.02703 10.5023 6.14138 9.55237 6.31572 8.59853Z" fill="white"/>
<path d="M27.8133 6.27332V10.7732C27.8133 12.7523 25.9808 13.7046 23.2035 13.7046C20.6075 13.7046 18.7463 12.7617 18.7463 10.5398V6.27332H21.3328V10.5398C21.3328 11.3333 22.0295 11.8281 23.3084 11.8281C24.5301 11.8281 25.2555 11.3146 25.2555 10.5491V6.27332H27.8133Z" fill="white"/>
<path d="M36.4284 11.6507V13.6019H29.2798V6.27332H31.8663V11.6507H36.4284Z" fill="white"/>
<path d="M44.1148 8.11249V6.27332H35.1719V8.11249H38.331V13.6019H40.9462V8.11249H44.1148Z" fill="white"/>
<path fill-rule="evenodd" clip-rule="evenodd" d="M53.2889 7.02024C53.6326 7.36562 53.7954 7.8418 53.7954 8.50457C53.7954 9.07411 53.6522 9.55957 53.4132 9.88626C53.1458 10.241 52.7353 10.5398 52.2296 10.6145L54.4921 13.6019H51.6477L49.7863 11.0159H47.4673V13.6019H44.9189V6.27332H50.8841C52.0676 6.27332 52.8407 6.55339 53.2889 7.02024ZM51.2277 9.1208C51.2946 9.00872 51.3135 8.85934 51.3135 8.73803C51.3135 8.59795 51.2946 8.44857 51.2277 8.35526C51.0941 8.11249 50.8267 8.04718 50.4256 8.04718H47.4768V9.38218H50.4736C50.8841 9.38218 51.1326 9.30749 51.2277 9.1208Z" fill="white"/>
<path fill-rule="evenodd" clip-rule="evenodd" d="M57.9359 12.2483H61.9827L62.6409 13.6019H65.3996L61.6202 6.27332H58.5375L54.5386 13.6019H57.2391L57.9359 12.2483ZM61.1711 10.6051H58.7757L59.721 8.84072L60.0073 8.16849L60.2746 8.83134L61.1711 10.6051Z" fill="white"/>
<path fill-rule="evenodd" clip-rule="evenodd" d="M53.0161 14.9821C51.415 14.9821 50.5728 15.7244 50.5728 16.8151C50.5728 18.0463 51.4567 18.6708 53.0161 18.6708C54.7329 18.6708 55.4548 17.9467 55.4548 16.8151C55.4548 15.6655 54.6401 14.9821 53.0161 14.9821ZM53.0161 17.7611C52.1047 17.7611 51.8404 17.3945 51.8404 16.8287C51.8404 16.2721 52.1275 15.9054 53.0114 15.9054C53.9787 15.9054 54.1957 16.3173 54.1957 16.8287C54.1957 17.3719 53.9323 17.7611 53.0161 17.7611Z" fill="white"/>
<path d="M48.2005 18.6167V16.5121H45.7851V17.277H47.076C47.0668 17.3358 47.0205 17.449 46.9604 17.5168C46.8262 17.6708 46.4699 17.8065 46.0072 17.8065C45.526 17.8065 45.216 17.6843 45.0494 17.4942C44.9384 17.3539 44.8736 17.1548 44.8736 16.8561C44.8736 16.5438 44.9384 16.3311 45.0632 16.1908C45.2437 15.9916 45.5491 15.9056 45.998 15.9056C46.4005 15.9056 46.6781 15.9961 46.8077 16.1092C46.891 16.1771 46.9557 16.2722 46.9696 16.3355H48.1681C48.1635 16.2224 48.1265 16.0414 48.0617 15.9101C47.7748 15.3398 47.1084 15.0004 45.9748 15.0004C44.9892 15.0004 44.3276 15.2945 43.962 15.7381C43.7214 16.0414 43.6104 16.4215 43.6104 16.847C43.6104 17.3178 43.7399 17.7205 43.9528 17.9876C44.3136 18.4448 44.9568 18.671 45.7296 18.671C46.4098 18.671 46.8771 18.5126 47.1732 18.2728L47.2057 18.6167H48.2005Z" fill="white"/>
<path d="M35.5952 16.4668C36.5345 16.5663 36.9371 16.8922 36.9371 17.5123C36.9371 18.2636 36.1875 18.6709 34.7114 18.6709C33.3371 18.6709 32.7449 18.2908 32.5181 17.7929C32.4672 17.6752 32.4441 17.5304 32.4302 17.4399H33.7628C33.7721 17.4942 33.8045 17.5756 33.8507 17.6299C33.9618 17.7612 34.2718 17.8382 34.7993 17.8382C35.4796 17.8382 35.6415 17.7431 35.6415 17.5666C35.6415 17.3765 35.4749 17.3358 34.8595 17.2724C34.6143 17.2498 34.2255 17.2136 34.0636 17.2C32.8883 17.0959 32.4534 16.7383 32.4534 16.1273C32.4534 15.4936 33.2215 15.0094 34.6235 15.0094C35.8682 15.0094 36.4466 15.3715 36.6872 15.8241C36.7612 15.9599 36.8075 16.1137 36.8214 16.2223H35.4888C35.4841 16.1726 35.4656 16.1228 35.4148 16.0594C35.3129 15.9282 35.0538 15.8422 34.5911 15.8422C33.9387 15.8422 33.7675 15.9191 33.7675 16.082C33.7675 16.2631 33.985 16.3039 34.7114 16.3808C34.9936 16.4034 35.4425 16.4486 35.5952 16.4668Z" fill="white"/>
<path fill-rule="evenodd" clip-rule="evenodd" d="M22.3111 15.367C22.5563 15.557 22.6951 15.8784 22.6951 16.3446C22.6951 16.7248 22.598 17.0099 22.4128 17.209C22.163 17.4896 21.7511 17.6164 21.2144 17.621C21.0478 17.6255 19.6227 17.621 19.6227 17.621V18.6166H18.3779V15.0637H21.1959C21.6956 15.0637 22.0751 15.1633 22.3111 15.367ZM21.3903 16.6206C21.4272 16.5573 21.4458 16.4758 21.4458 16.3626C21.4458 16.245 21.4226 16.1454 21.381 16.0911C21.3023 15.978 21.1543 15.9236 20.9136 15.9236H19.6134V16.7926H20.9043C21.1635 16.7926 21.3162 16.7338 21.3903 16.6206Z" fill="white"/>
<path fill-rule="evenodd" clip-rule="evenodd" d="M27.248 15.4259C27.4146 15.5934 27.4932 15.8242 27.4932 16.1455C27.4932 16.4216 27.4238 16.657 27.3081 16.8154C27.1786 16.9874 26.9796 17.1322 26.7344 17.1685L27.831 18.6168H26.4521L25.5498 17.3631H24.4254V18.6168H23.1899V15.0638H26.082C26.6557 15.0638 27.0305 15.1996 27.248 15.4259ZM26.2485 16.4443C26.2809 16.39 26.2901 16.3175 26.2901 16.2587C26.2901 16.1908 26.2809 16.1184 26.2485 16.0732C26.1837 15.9555 26.0542 15.9238 25.8599 15.9238H24.43V16.571H25.883C26.082 16.571 26.2023 16.5348 26.2485 16.4443Z" fill="white"/>
<path d="M32.0559 18.6168V17.7342H29.4509V17.2725H31.9495V16.4081H29.4509V15.9509H32.0235V15.0638H28.2292V18.6168H32.0559Z" fill="white"/>
<path d="M41.4396 15.9555V15.0638H37.104V15.9555H38.6355V18.6168H39.9034V15.9555H41.4396Z" fill="white"/>
<path d="M43.1072 15.0638V18.6168H41.8347V15.0638H43.1072Z" fill="white"/>
<path d="M50.0698 15.0638V18.6168H48.7971V15.0638H50.0698Z" fill="white"/>
<path d="M60.3645 15.0637V17.2453C60.3645 18.2048 59.4759 18.6665 58.1296 18.6665C56.8713 18.6665 55.9685 18.2093 55.9685 17.1321V15.0637H57.2228V17.1321C57.2228 17.5168 57.5602 17.7567 58.1807 17.7567C58.7728 17.7567 59.1244 17.5078 59.1244 17.1366V15.0637H60.3645Z" fill="white"/>
<path d="M65.3599 17.5123C65.3599 16.8922 64.9573 16.5663 64.0183 16.4668C63.865 16.4486 63.4167 16.4034 63.1344 16.3808C62.4078 16.3039 62.1899 16.2631 62.1899 16.082C62.1899 15.9191 62.3614 15.8422 63.0141 15.8422C63.4765 15.8422 63.736 15.9282 63.8374 16.0594C63.8886 16.1228 63.9066 16.1726 63.9114 16.2223H65.2443C65.2302 16.1137 65.1838 15.9599 65.1098 15.8241C64.8692 15.3715 64.2912 15.0094 63.0463 15.0094C61.6441 15.0094 60.8758 15.4936 60.8758 16.1273C60.8758 16.7383 61.3115 17.0959 62.4864 17.2L62.5619 17.2066L62.6877 17.2178L63.2822 17.2724C63.898 17.3358 64.0639 17.3765 64.0639 17.5666C64.0639 17.7431 63.9027 17.8382 63.2225 17.8382C62.6948 17.8382 62.3849 17.7612 62.2733 17.6299C62.2277 17.5756 62.1946 17.4942 62.186 17.4399H60.853C60.8672 17.5304 60.89 17.6752 60.9411 17.7929C61.1676 18.2908 61.7598 18.6709 63.1344 18.6709C64.6105 18.6709 65.3599 18.2636 65.3599 17.5123Z" fill="white"/>
<path fill-rule="evenodd" clip-rule="evenodd" d="M33.0029 19.9771C31.9624 19.9771 31.415 20.4595 31.415 21.1684C31.415 21.9685 31.9894 22.3744 33.0029 22.3744C34.1186 22.3744 34.5877 21.9038 34.5877 21.1684C34.5877 20.4213 34.0585 19.9771 33.0029 19.9771ZM33.0029 21.7832C32.4105 21.7832 32.239 21.5449 32.239 21.1772C32.239 20.8154 32.4255 20.5771 32.9999 20.5771C33.6284 20.5771 33.7698 20.8448 33.7698 21.1772C33.7698 21.5302 33.5983 21.7832 33.0029 21.7832Z" fill="white"/>
<path d="M27.2172 21.6214C27.2172 21.2184 26.9556 21.0066 26.3451 20.9419C26.2458 20.9301 25.9542 20.9008 25.7707 20.8861C25.2985 20.836 25.1572 20.8095 25.1572 20.6919C25.1572 20.586 25.2685 20.536 25.6925 20.536C25.9933 20.536 26.1616 20.5918 26.2278 20.6771C26.2609 20.7184 26.2729 20.7507 26.276 20.7831H27.142C27.133 20.7124 27.103 20.6124 27.0548 20.5242C26.8984 20.2301 26.5225 19.9948 25.7135 19.9948C24.8024 19.9948 24.3032 20.3094 24.3032 20.7213C24.3032 21.1184 24.5858 21.3508 25.3497 21.4184C25.455 21.4273 25.7076 21.4508 25.867 21.4655C26.2669 21.5067 26.3751 21.5332 26.3751 21.6568C26.3751 21.7714 26.2699 21.8332 25.8279 21.8332C25.485 21.8332 25.2835 21.7832 25.2113 21.6979C25.1813 21.6626 25.1602 21.6097 25.1542 21.5744H24.2881C24.2971 21.6332 24.3122 21.7273 24.3453 21.8038C24.4926 22.1274 24.8776 22.3744 25.7707 22.3744C26.73 22.3744 27.2172 22.1098 27.2172 21.6214Z" fill="white"/>
<path fill-rule="evenodd" clip-rule="evenodd" d="M21.2124 21.6862C21.2124 21.845 21.1673 22.001 21.0771 22.1039C20.9387 22.2686 20.6801 22.3392 20.3463 22.3392H18.2502V20.03H20.2892C20.6139 20.03 20.8215 20.1066 20.9357 20.2213C21.038 20.3213 21.0831 20.4536 21.0831 20.6036C21.0831 20.7537 21.047 20.8773 20.9689 20.9684C20.9056 21.045 20.7974 21.1037 20.6832 21.1185C20.8515 21.139 21.0109 21.2214 21.1011 21.3361C21.1763 21.4214 21.2124 21.5509 21.2124 21.6862ZM20.199 20.8773C20.229 20.8449 20.2471 20.7978 20.2471 20.742C20.2471 20.686 20.229 20.639 20.1899 20.6066C20.1478 20.5683 20.0696 20.5536 19.9553 20.5536H19.0381V20.9302H19.9764C20.0786 20.9302 20.1569 20.9155 20.199 20.8773ZM20.0636 21.8156C20.2049 21.8156 20.2892 21.798 20.3373 21.7539C20.3673 21.7244 20.3794 21.6803 20.3794 21.6244C20.3794 21.5656 20.3643 21.5215 20.3282 21.4862C20.2832 21.448 20.2049 21.4303 20.0727 21.4303H19.0381V21.8156H20.0636Z" fill="white"/>
<path d="M24.0441 21.7656V22.3392H21.5571V20.03H24.0231V20.6066H22.351V20.9037H23.9749V21.4656H22.351V21.7656H24.0441Z" fill="white"/>
<path d="M30.1425 20.03V20.6096H29.1441V22.3392H28.3201V20.6096H27.3247V20.03H30.1425Z" fill="white"/>
<path d="M37.3396 20.0299V20.6153H35.7367V20.9418H37.2644V21.5214H35.7367V22.3391H34.9277V20.0299H37.3396Z" fill="white"/>
<path d="M41.4147 20.6096V20.03H38.5969V20.6096H39.5924V22.3392H40.4164V20.6096H41.4147Z" fill="white"/>
<path d="M44.4881 20.03V22.3392H43.6821V21.5009H42.4731V22.3392H41.6672V20.03H42.4731V20.8713H43.6821V20.03H44.4881Z" fill="white"/>
<path d="M47.4521 22.3392V21.7656H45.759V21.4656H47.3829V20.9037H45.759V20.6066H47.431V20.03H44.9651V22.3392H47.4521Z" fill="white"/>
<path d="M52.4381 20.03H53.2167L52.354 22.3392H51.4701C51.4701 22.3392 50.9974 20.9596 50.9943 20.9213C50.9919 20.9596 50.5162 22.3392 50.5162 22.3392H49.6354L48.7512 20.03H49.6259C49.6259 20.03 50.1379 21.4832 50.1379 21.5185C50.1379 21.4832 50.6097 20.03 50.6097 20.03H51.4551C51.4551 20.03 51.9301 21.4832 51.9301 21.5185C51.9301 21.4832 52.4381 20.03 52.4381 20.03Z" fill="white"/>
<path fill-rule="evenodd" clip-rule="evenodd" d="M54.7609 19.9771C53.7204 19.9771 53.1731 20.4595 53.1731 21.1684C53.1731 21.9685 53.7472 22.3744 54.7609 22.3744C55.8768 22.3744 56.3455 21.9038 56.3455 21.1684C56.3455 20.4213 55.8162 19.9771 54.7609 19.9771ZM54.7609 21.7832C54.1687 21.7832 53.9973 21.5449 53.9973 21.1772C53.9973 20.8154 54.1836 20.5771 54.7577 20.5771C55.3868 20.5771 55.5276 20.8448 55.5276 21.1772C55.5276 21.5302 55.3562 21.7832 54.7609 21.7832Z" fill="white"/>
<path fill-rule="evenodd" clip-rule="evenodd" d="M59.3234 20.2654C59.4311 20.3743 59.4823 20.5243 59.4823 20.7331C59.4823 20.9126 59.4374 21.0655 59.3619 21.1685C59.2778 21.2803 59.1488 21.3744 58.9892 21.3979L59.7017 22.3392H58.8059L58.2193 21.5244H57.4887V22.3392H56.6858V20.03H58.5653C58.9381 20.03 59.1818 20.1183 59.3234 20.2654ZM58.6738 20.9273C58.6943 20.892 58.7006 20.8449 58.7006 20.8066C58.7006 20.7625 58.6943 20.7155 58.6738 20.686C58.6314 20.6096 58.5472 20.589 58.4206 20.589H57.4919V21.0096H58.4355C58.5653 21.0096 58.6432 20.9861 58.6738 20.9273Z" fill="white"/>
<path d="M62.2127 22.3392V21.7244H60.7752V20.03H59.9604V22.3392H62.2127Z" fill="white"/>
<path fill-rule="evenodd" clip-rule="evenodd" d="M65.402 21.142C65.402 21.5009 65.3658 21.695 65.2581 21.8774C65.0953 22.1686 64.7737 22.3392 64.2051 22.3392H62.5332V20.03H64.187C64.7524 20.03 65.0867 20.186 65.2518 20.4536C65.369 20.6331 65.402 20.8243 65.402 21.142ZM64.0518 21.7715C64.3073 21.7715 64.452 21.7126 64.5393 21.5833C64.5936 21.5038 64.6085 21.3185 64.6085 21.1567C64.6054 21.0096 64.5873 20.8537 64.5393 20.7831C64.4457 20.6449 64.305 20.5949 64.058 20.5949H63.3393V21.7715H64.0518Z" fill="white"/>
<path d="M33.1427 33.5697H31.8966C31.8966 33.5697 31.0834 35.8947 31.0834 35.9512C31.0834 35.8947 30.3232 33.5697 30.3232 33.5697H28.9711C28.9711 33.5697 28.2157 35.8947 28.2157 35.9512C28.2157 35.8947 27.3978 33.5697 27.3978 33.5697H25.9976L27.4121 37.2642H28.8219C28.8219 37.2642 29.5822 35.0569 29.587 34.9958C29.5918 35.0569 30.3472 37.2642 30.3472 37.2642H31.7618L33.1427 33.5697Z" fill="white"/>
<path d="M34.8484 37.2641V33.5696H33.5251V37.2641H34.8484Z" fill="white"/>
<path d="M39.9951 33.5696V37.2641H38.7055L36.8339 35.2074V37.2641H35.5925V33.5696H36.9493L38.7632 35.5793V33.5696H39.9951Z" fill="white"/>
<path d="M45.1499 37.2642V33.5697H43.9181V35.5794L42.1042 33.5697H40.7473V37.2642H41.9887V35.2075L43.8604 37.2642H45.1499Z" fill="white"/>
<path d="M49.8814 36.3465V37.2642H45.9019V33.5697H49.8476V34.4922H47.1721V34.9676H49.7705V35.8665H47.1721V36.3465H49.8814Z" fill="white"/>
<path fill-rule="evenodd" clip-rule="evenodd" d="M54.9661 34.6946C54.9661 34.3604 54.8843 34.1204 54.7113 33.9462C54.4848 33.7109 54.0956 33.5697 53.4987 33.5697H50.4915V37.2642H51.7764V35.9605H52.9458L53.884 37.2642H55.3176L54.1773 35.7582C54.4321 35.7205 54.639 35.5699 54.7742 35.3911C54.8938 35.2264 54.9661 34.9816 54.9661 34.6946ZM53.7149 34.8122C53.7149 34.8734 53.7055 34.9487 53.6717 35.0052C53.6237 35.0993 53.4987 35.1369 53.2919 35.1369H51.7812V34.4639H53.2675C53.4696 34.4639 53.6048 34.4969 53.6717 34.6192C53.7055 34.6663 53.7149 34.7416 53.7149 34.8122Z" fill="white"/>
<path d="M29.3011 27.0515L28.7794 25.4806L28.2575 27.0515H26.5688L27.935 28.0224L27.4132 29.5933L28.7794 28.6224L30.1454 29.5933L29.6237 28.0224L30.9898 27.0515H29.3011Z" fill="white"/>
<path d="M34.8039 25.4796L35.3364 27.0505H37.0595L35.6655 28.0215L36.198 29.5923L34.8039 28.6215L33.4099 29.5923L33.9424 28.0215L32.5483 27.0505H34.2714L34.8039 25.4796Z" fill="white"/>
<path d="M41.313 27.0505L40.7806 25.4796L40.2481 27.0505H38.5249L39.919 28.0215L39.3865 29.5923L40.7806 28.6215L42.1745 29.5923L41.6421 28.0215L43.0361 27.0505H41.313Z" fill="white"/>
<path d="M46.7568 25.4796L47.2893 27.0505H49.0124L47.6184 28.0215L48.1509 29.5923L46.7568 28.6215L45.3628 29.5923L45.8953 28.0215L44.5012 27.0505H46.2244L46.7568 25.4796Z" fill="white"/>
<path d="M53.3026 27.0505L52.7804 25.4796L52.2582 27.0505H50.5698L51.9358 28.0215L51.4144 29.5923L52.7804 28.6215L54.1464 29.5923L53.625 28.0215L54.991 27.0505H53.3026Z" fill="white"/>
<path d="M75.2098 8.63246C75.7091 7.39057 75.4921 5.96234 75.032 4.76126C74.5476 3.49749 73.7046 2.23696 72.4447 1.57227C72.3818 2.90419 72.7978 4.21996 73.2524 5.4065C73.6613 6.47365 74.1623 7.61057 74.9903 8.49307C75.1177 9.16169 75.2153 9.82846 75.2837 10.4922C75.0092 9.79115 74.5649 9.15223 74.0097 8.63838C73.2948 7.97646 72.2308 7.46588 71.2329 7.76784C71.5254 8.84715 72.1915 9.88192 72.9811 10.6078C73.6023 11.1791 74.4226 11.9111 75.3883 11.9399C75.4284 12.9169 75.4056 13.885 75.323 14.8399C75.1869 14.1412 74.8952 13.4832 74.4729 12.9932C73.8933 12.3198 73.0338 11.4972 71.9367 11.6348C71.9965 12.7273 72.4424 13.8466 73.0629 14.6877C73.5551 15.3561 74.2063 16.208 75.1303 16.4281C74.9825 17.3661 74.7764 18.2887 74.5146 19.1915C74.5122 18.5002 74.3565 17.8217 74.0467 17.2775C73.6102 16.5101 72.93 15.5529 71.8313 15.4781C71.6701 16.5498 71.8888 17.7215 72.3291 18.6533C72.6807 19.3981 73.1502 20.348 74.005 20.741C73.6456 21.7125 73.2209 22.657 72.7334 23.5685C72.9048 22.7828 72.8977 21.9548 72.6956 21.2098C72.4164 20.1831 71.7244 19.1045 70.6124 18.7915C70.2192 19.9252 70.2735 21.1901 70.5023 22.3423C70.6903 23.291 71.0591 24.4052 71.8864 25.0214C71.3453 25.8758 70.7469 26.6957 70.0934 27.4758C70.4449 26.7108 70.6187 25.8739 70.5251 25.1078C70.3891 23.9922 70.069 22.7988 68.9043 22.2042C68.243 23.3196 68.0896 24.5709 68.0338 25.8068C67.9882 26.8061 68.1352 28.0385 68.8454 28.8515C68.0645 29.6448 67.223 30.3874 66.3241 31.0722C66.9045 30.3436 67.3111 29.4888 67.3968 28.6434C67.5187 27.4488 67.4597 26.1339 66.3752 25.2572C65.4489 26.2042 64.8952 27.5987 64.6247 28.8099C64.3849 29.8808 64.1348 31.1484 64.7049 32.2023C63.5607 32.9332 62.3386 33.5772 61.0465 34.1225C61.9556 33.4888 62.6996 32.6194 63.0542 31.7217C63.519 30.5452 63.8061 29.1432 62.9017 27.9649C61.689 28.7245 60.798 30.0205 60.0958 31.2025C59.4934 32.2168 58.8698 33.6168 59.1796 34.8247C58.464 35.0621 57.7303 35.2705 56.9792 35.4484L57.0241 35.6288C57.7775 35.4502 58.5143 35.2411 59.2323 35.003C59.7356 36.4573 61.3839 36.9379 62.7169 37.15C64.6161 37.4522 66.8778 36.8667 68.4993 35.6869C67.6429 34.5039 65.8971 34.3839 64.5807 34.2934L64.5634 34.2922C63.1211 34.1931 61.5609 34.3255 60.1107 34.6942C61.7858 34.0703 63.3539 33.2857 64.8001 32.3634L64.8197 32.3942C65.6116 33.6528 67.2033 33.702 68.4521 33.6225C70.1469 33.5146 72.1027 32.507 73.2343 31.1142C72.1695 30.2005 70.5975 30.4561 69.3785 30.6542L69.3723 30.6552C68.0126 30.8763 66.527 31.3585 65.2798 32.1012C65.3985 32.0097 65.5141 31.913 65.6274 31.8115C66.84 30.9658 67.9583 30.0197 68.9735 28.9882C68.9877 29.0019 69.0019 29.0155 69.016 29.0289C70.0037 29.9928 71.4374 29.7385 72.5572 29.4231C74.0592 29 75.6163 27.7236 76.3626 26.2583C75.2058 25.6245 73.8233 26.1467 72.7483 26.5599C71.5663 27.0138 70.3167 27.74 69.3557 28.6659C69.4548 28.5436 69.55 28.4158 69.6396 28.2835C70.5322 27.2975 71.3359 26.2418 72.0421 25.1279L72.0728 25.1465L72.0806 25.1513C73.1965 25.8538 74.4611 25.3437 75.463 24.842C76.8227 24.1613 77.9158 22.6653 78.3876 21.1941C77.1813 20.8162 75.9899 21.5579 75.0635 22.1454C74.049 22.7882 73.022 23.7052 72.3173 24.7568C72.3692 24.653 72.418 24.5468 72.4628 24.4388C73.1399 23.2831 73.7148 22.0701 74.1803 20.8117L74.2047 20.8197L74.2087 20.8212C75.2239 21.1972 76.354 20.6105 77.0908 19.9671C78.1147 19.0723 78.8374 17.6967 79.0064 16.3528C77.948 16.2186 76.9501 17.0198 76.2683 17.7031C75.4834 18.4902 74.778 19.4205 74.3447 20.4538C74.3769 20.3411 74.4045 20.2265 74.4273 20.1108C74.8213 18.9286 75.1201 17.7095 75.3167 16.4632L75.3466 16.467C76.4161 16.6364 77.4054 15.8403 77.9968 15.0676C78.8287 13.9803 79.2573 12.4755 79.1496 11.1115C78.0809 11.1847 77.2662 12.1798 76.7385 12.9848C76.1267 13.9172 75.6195 14.9725 75.3977 16.0766C75.4048 15.9883 75.4087 15.8995 75.4103 15.8105C75.5731 14.5418 75.6313 13.2471 75.5778 11.9365C76.6701 11.899 77.4793 10.907 77.8961 10.0273C78.4914 8.76907 78.5874 7.1785 78.1902 5.83811C77.1498 6.12373 76.5695 7.29088 76.2274 8.18938C75.8326 9.22538 75.5573 10.3555 75.555 11.4788C75.4984 10.5364 75.3836 9.58638 75.2098 8.63246Z" fill="white"/>
</svg>
