<svg width="50" height="40" viewBox="0 0 50 40" fill="none" xmlns="http://www.w3.org/2000/svg">
<path d="M16.5848 13.7475C16.5848 13.6459 16.5848 12.1677 16.5848 12.1677H15.6945C15.6945 12.1677 15.6945 13.623 15.6945 13.6689C15.6945 13.9377 15.4421 14.1179 15.0169 14.1179C14.5717 14.1179 14.3292 13.9442 14.3292 13.6656C14.3292 13.6197 14.3292 12.1677 14.3292 12.1677H13.429C13.429 12.1677 13.429 13.5476 13.429 13.6656C13.429 14.4457 14.0767 14.7767 14.9803 14.7767C15.947 14.7767 16.5848 14.4424 16.5848 13.7475Z" fill="white"/>
<path d="M19.5833 14.7404V14.0554H17.9955V12.1675H17.0952V14.7404H19.5833Z" fill="white"/>
<path d="M22.2586 12.8135V12.1677H19.146V12.8135H20.2455V14.7407H21.1557V12.8135H22.2586Z" fill="white"/>
<path d="M23.455 14.7407V12.1677H22.5415V14.7407H23.455Z" fill="white"/>
<path d="M27.6466 14.7404V12.1675H26.5205L25.8096 13.7113L25.1319 12.1675H23.9692V14.7404H24.8163V13.3507L25.4275 14.7404H26.185L26.8028 13.3507V14.7404H27.6466Z" fill="white"/>
<path d="M29.0581 14.2654H30.4666L30.6958 14.7407H31.6558L30.3404 12.1677H29.2674L27.8755 14.7407H28.8156L29.0581 14.2654ZM30.1842 13.6885H29.3504L29.6793 13.0691L29.7789 12.8331L29.872 13.0658L30.1842 13.6885Z" fill="white"/>
<path d="M34.4787 12.8135V12.1677H31.3662V12.8135H32.4657V14.7407H33.376V12.8135H34.4787Z" fill="white"/>
<path d="M37.5057 14.7407V14.1015H35.6361V13.7672H37.4293V13.1412H35.6361V12.8101H37.4827V12.1677H34.759V14.7407H37.5057Z" fill="white"/>
<path d="M20.219 16.108H19.3586C19.3586 16.108 18.7972 17.7272 18.7972 17.7665C18.7972 17.7272 18.2723 16.108 18.2723 16.108H17.3389C17.3389 16.108 16.8173 17.7272 16.8173 17.7665C16.8173 17.7272 16.2526 16.108 16.2526 16.108H15.2859L16.2626 18.681H17.2359C17.2359 18.681 17.7608 17.1438 17.7641 17.1012C17.7674 17.1438 18.2889 18.681 18.2889 18.681H19.2656L20.219 16.108Z" fill="white"/>
<path d="M21.3962 18.681V16.108H20.4827V18.681H21.3962Z" fill="white"/>
<path d="M24.949 18.6812V16.1083H24.0986V17.5078L22.8462 16.1083H21.9094V18.6812H22.7665V17.2489L24.0587 18.6812H24.949Z" fill="white"/>
<path d="M28.508 18.681V16.108H27.6576V17.5076L26.4053 16.108H25.4685V18.681H26.3255V17.2486L27.6178 18.681H28.508Z" fill="white"/>
<path d="M31.7736 18.681V18.0418H29.9034V17.7075H31.6972V17.0815H29.9034V16.7504H31.7504V16.108H29.0264V18.681H31.7736Z" fill="white"/>
<path d="M35.2857 16.8916C35.2857 16.6589 35.229 16.4917 35.1094 16.3705C34.9533 16.2066 34.6844 16.1083 34.2722 16.1083H32.1963V18.6812H33.0832V17.7733H33.8905L34.5385 18.6812H35.5283L34.7412 17.6323C34.9168 17.6061 35.0601 17.5013 35.1526 17.3767C35.2357 17.262 35.2857 17.0915 35.2857 16.8916ZM34.4222 16.9735C34.4222 17.0162 34.4155 17.0686 34.3918 17.1079C34.3587 17.1735 34.2722 17.1997 34.1297 17.1997H33.0866V16.731H34.1128C34.2526 16.731 34.3459 16.7539 34.3918 16.8392C34.4155 16.8719 34.4222 16.9244 34.4222 16.9735Z" fill="white"/>
<path d="M16.9594 21.2126C16.9594 21.1705 16.9594 19.9553 16.9594 19.9553H16.6484C16.6484 19.9553 16.6484 21.1655 16.6484 21.1928C16.6484 21.4848 16.37 21.6507 15.9686 21.6507C15.4946 21.6507 15.2613 21.4725 15.2613 21.1903C15.2613 21.1631 15.2613 19.9553 15.2613 19.9553H14.9478C14.9478 19.9553 14.9478 21.1334 14.9478 21.1804C14.9478 21.6952 15.3541 21.9229 15.9561 21.9229C16.5782 21.9229 16.9594 21.6803 16.9594 21.2126Z" fill="white"/>
<path d="M19.1918 21.8979V21.6133H17.8348V19.9551H17.5212V21.8979H19.1918Z" fill="white"/>
<path d="M20.9726 20.2372V19.9551H18.8806V20.2372H19.7686V21.8979H20.0847V20.2372H20.9726Z" fill="white"/>
<path d="M23.2025 20.5047C23.2025 20.3661 23.1723 20.2647 23.1197 20.183C23.0269 20.0469 22.8488 19.9553 22.5528 19.9553H21.2786V21.8981H21.5871V21.0789H22.4851L23.0344 21.8981H23.3956L22.8011 21.0269C22.9516 21.0097 23.0695 20.9255 23.1322 20.8166C23.1774 20.7423 23.2025 20.6335 23.2025 20.5047ZM22.8914 20.5295C22.8914 20.5839 22.8789 20.6508 22.8563 20.6953C22.8162 20.7671 22.7234 20.8042 22.5729 20.8067H21.5896C21.5896 20.8017 21.5896 20.2325 21.5896 20.2325H22.5152C22.7033 20.2325 22.8036 20.2771 22.8563 20.3612C22.8789 20.4008 22.8914 20.4676 22.8914 20.5295Z" fill="white"/>
<path d="M24.0945 21.4177H25.3211L25.5719 21.8979H25.9081L24.9097 19.9551H24.541L23.51 21.8979H23.8386L24.0945 21.4177ZM25.1906 21.143H24.2299L24.6287 20.3981L24.7166 20.2174L24.8043 20.3981L25.1906 21.143Z" fill="white"/>
<path d="M29.0898 21.7125C29.1676 21.6234 29.2027 21.4972 29.2027 21.3611C29.2027 21.2324 29.1651 21.1037 29.0873 21.0245C29.0095 20.9503 28.8841 20.8884 28.7461 20.876C28.8264 20.8636 28.8891 20.8141 28.9317 20.7621C28.9995 20.6854 29.0396 20.5617 29.0396 20.4379C29.0396 20.3067 28.9995 20.1879 28.9142 20.1063C28.8214 20.0147 28.6634 19.9553 28.4426 19.9553H27.1182V21.8981H28.5405C28.8063 21.8981 28.9919 21.8313 29.0898 21.7125ZM28.716 20.4998C28.716 20.5864 28.6884 20.6631 28.6408 20.7077C28.5931 20.7597 28.5128 20.7819 28.4276 20.7819H27.4242V20.2226H28.3699C28.4853 20.2226 28.573 20.2449 28.6332 20.2993C28.6859 20.3488 28.716 20.4206 28.716 20.4998ZM28.8163 21.5244C28.7536 21.5937 28.6458 21.6284 28.4878 21.6284H27.4242V21.0517H28.4953C28.6408 21.0517 28.7411 21.0814 28.8013 21.1383C28.8565 21.1903 28.8791 21.2571 28.8791 21.3339C28.8791 21.4131 28.8615 21.4799 28.8163 21.5244Z" fill="white"/>
<path d="M31.4799 21.8979V21.6133H29.9499V21.0589H31.4197V20.7767H29.9499V20.2372H31.4624V19.9551H29.6438V21.8979H31.4799Z" fill="white"/>
<path d="M33.9311 21.324C33.9311 21.0072 33.7182 20.8439 33.1939 20.7845C33.1059 20.7721 32.9152 20.7523 32.8123 20.7399C32.3257 20.683 32.1777 20.6187 32.1777 20.4529C32.1777 20.292 32.3408 20.2004 32.8324 20.2004C33.2135 20.2004 33.4094 20.2747 33.5074 20.4083C33.5351 20.4454 33.55 20.49 33.5574 20.5246H33.8932C33.8838 20.4677 33.8608 20.3885 33.8257 20.3241C33.6905 20.094 33.4121 19.9281 32.8324 19.9281C32.1401 19.9257 31.8542 20.1732 31.8542 20.4801C31.8542 20.7869 32.0774 20.9429 32.6569 21.0097C32.7572 21.0221 32.9353 21.0419 33.0231 21.0518C33.4723 21.1062 33.6128 21.1731 33.6128 21.3587C33.6128 21.5295 33.452 21.6532 32.9377 21.6532C32.5164 21.6532 32.2906 21.5789 32.2003 21.4354C32.1727 21.3958 32.1552 21.3339 32.1527 21.2919H31.8215C31.8291 21.3809 31.8542 21.4775 31.8993 21.5542C32.0298 21.7893 32.3358 21.9255 32.9277 21.9255C33.6351 21.9255 33.9311 21.7002 33.9311 21.324Z" fill="white"/>
<path d="M36.1793 20.2372V19.9551H34.0874V20.2372H34.9752V21.8979H35.2915V20.2372H36.1793Z" fill="white"/>
<path d="M14.0606 23.5865C14.0606 23.3885 14.0204 23.2549 13.9527 23.1534C13.8574 23.0073 13.6717 22.9307 13.3481 22.9307H12.104V24.8735H12.415V24.2399C12.415 24.2399 13.293 24.2399 13.3356 24.2399C13.6391 24.2374 13.8473 24.1681 13.9577 24.0097C14.0279 23.9132 14.0606 23.7746 14.0606 23.5865ZM13.7445 23.5865C13.7445 23.6855 13.7344 23.7597 13.7018 23.8093C13.6441 23.9008 13.5262 23.9577 13.2829 23.9577C13.2604 23.9577 12.415 23.9577 12.415 23.9577V23.2079H13.293C13.5212 23.2079 13.6391 23.2598 13.7018 23.3613C13.7319 23.4058 13.7445 23.4875 13.7445 23.5865Z" fill="white"/>
<path d="M16.3303 24.8735V24.5889H14.8002V24.0345H16.2701V23.7523H14.8002V23.2128H16.3127V22.9307H14.4941V24.8735H16.3303Z" fill="white"/>
<path d="M18.7235 23.4801C18.7235 23.3415 18.6934 23.24 18.6407 23.1583C18.5479 23.0222 18.3698 22.9307 18.0738 22.9307H16.7996V24.8735H17.1081V24.0543H18.0061L18.5554 24.8735H18.9167L18.3221 24.0023C18.4727 23.985 18.5906 23.9008 18.6533 23.7919C18.6984 23.7177 18.7235 23.6088 18.7235 23.4801ZM18.4125 23.5048C18.4125 23.5593 18.3999 23.6261 18.3773 23.6707C18.3372 23.7424 18.2444 23.7795 18.0939 23.782H17.1106C17.1106 23.7771 17.1106 23.2079 17.1106 23.2079H18.0362C18.2243 23.2079 18.3246 23.2524 18.3773 23.3365C18.3999 23.3761 18.4125 23.4429 18.4125 23.5048Z" fill="white"/>
<path d="M21.0485 23.2128V22.9307H19.2976V24.8735H19.6086V24.0469H20.9833V23.7573H19.6086V23.2128H21.0485Z" fill="white"/>
<path d="M22.4768 22.8961C22.0579 22.8961 21.7695 22.9976 21.5637 23.2105C21.3907 23.3763 21.3154 23.6065 21.3154 23.896C21.3154 24.2128 21.4133 24.4504 21.5939 24.6113C21.7871 24.8019 22.083 24.9008 22.4768 24.9008C22.8832 24.9008 23.1992 24.8019 23.3874 24.6013C23.5504 24.438 23.6357 24.2054 23.6357 23.8935C23.6357 23.5916 23.5629 23.3614 23.3899 23.1981C23.1917 22.9951 22.8957 22.8961 22.4768 22.8961ZM22.4768 24.6237C22.2009 24.6237 22.0052 24.5643 21.8573 24.4455C21.7068 24.3242 21.634 24.1385 21.634 23.9009C21.634 23.6782 21.6967 23.4926 21.8171 23.3812C21.9551 23.2525 22.1658 23.1758 22.4743 23.1758C22.7929 23.1758 22.991 23.2501 23.139 23.3787C23.2645 23.4877 23.3196 23.6807 23.3196 23.8985C23.3196 24.1187 23.262 24.3069 23.134 24.4207C22.986 24.5568 22.7779 24.6237 22.4768 24.6237Z" fill="white"/>
<path d="M25.9881 23.4801C25.9881 23.3415 25.958 23.24 25.9054 23.1583C25.8125 23.0222 25.6344 22.9307 25.3385 22.9307H24.0642V24.8735H24.3727V24.0543H25.2707L25.8201 24.8735H26.1812L25.5868 24.0023C25.7372 23.985 25.8552 23.9008 25.9179 23.7919C25.9631 23.7177 25.9881 23.6088 25.9881 23.4801ZM25.677 23.5048C25.677 23.5593 25.6645 23.6261 25.642 23.6707C25.6018 23.7424 25.509 23.7795 25.3585 23.782H24.3752C24.3752 23.7771 24.3752 23.2079 24.3752 23.2079H25.3008C25.4889 23.2079 25.5893 23.2524 25.642 23.3365C25.6645 23.3761 25.677 23.4429 25.677 23.5048Z" fill="white"/>
<path d="M28.9896 24.8735V22.9307H28.5832L27.773 24.5295L26.9778 22.9307H26.564V24.8735H26.8625V23.3786L27.6049 24.8735H27.931L28.6911 23.3786V24.8735H28.9896Z" fill="white"/>
<path d="M29.8694 24.3933H31.096L31.3468 24.8735H31.683L30.6846 22.9307H30.3159L29.2849 24.8735H29.6135L29.8694 24.3933ZM30.9655 24.1186H30.0048L30.4036 23.3737L30.4915 23.193L30.5792 23.3737L30.9655 24.1186Z" fill="white"/>
<path d="M33.9427 24.8735V22.9307H33.6441V24.4403L32.34 22.9307H31.9863V24.8735H32.2898V23.3539L33.6042 24.8735H33.9427Z" fill="white"/>
<path d="M36.6488 24.1485H36.3225C36.3123 24.2375 36.2772 24.3267 36.2144 24.3935C36.0792 24.5494 35.8637 24.6162 35.5326 24.6162C35.2542 24.6162 34.9556 24.5395 34.8123 24.339C34.7373 24.245 34.6894 24.1064 34.6894 23.8985C34.6894 23.7129 34.7225 23.5743 34.7948 23.4802C34.915 23.2897 35.1684 23.1907 35.5252 23.1907C35.8711 23.1907 36.0894 23.2847 36.2049 23.4159C36.2698 23.4851 36.3076 23.5669 36.3198 23.6633H36.6461C36.636 23.5545 36.6009 23.4257 36.5259 23.3169C36.365 23.0817 36.0691 22.8961 35.5272 22.8961C35.011 22.8961 34.7022 23.0595 34.5313 23.3045C34.4211 23.4455 34.3657 23.6435 34.3657 23.896C34.3657 24.1781 34.434 24.3861 34.5515 24.5321C34.7225 24.7623 35.0509 24.9008 35.5475 24.9008C36.0569 24.9008 36.3603 24.7499 36.511 24.5098C36.5961 24.3935 36.6387 24.2549 36.6488 24.1485Z" fill="white"/>
<path d="M38.8943 24.8735V24.5889H37.3639V24.0345H38.8342V23.7523H37.3639V23.2128H38.8768V22.9307H37.0579V24.8735H38.8943Z" fill="white"/>
<path d="M15.9539 26.8036L16.329 27.9428H17.543L16.5609 28.6469L16.936 29.786L15.9539 29.082L14.9717 29.786L15.3469 28.6469L14.3647 27.9428H15.5787L15.9539 26.8036Z" fill="white"/>
<path d="M20.2844 26.8037L20.6672 27.9428H21.9059L20.9038 28.6469L21.2866 29.7861L20.2844 29.082L19.2822 29.7861L19.665 28.6469L18.6628 27.9428H19.9016L20.2844 26.8037Z" fill="white"/>
<path d="M24.5813 26.8036L24.9641 27.9427H26.2028L25.2007 28.6468L25.5835 29.786L24.5813 29.0819L23.5791 29.786L23.9619 28.6468L22.9597 27.9427H24.1985L24.5813 26.8036Z" fill="white"/>
<path d="M28.8781 26.8037L29.2609 27.9428H30.4997L29.4975 28.6469L29.8803 29.7861L28.8781 29.082L27.876 29.7861L28.2588 28.6469L27.2566 27.9428H28.4954L28.8781 26.8037Z" fill="white"/>
<path d="M33.2088 26.8036L33.5838 27.9427H34.798L33.8156 28.6468L34.1906 29.786L33.2088 29.0819L32.2266 29.786L32.6018 28.6468L31.6196 27.9427H32.8336L33.2088 26.8036Z" fill="white"/>
<path d="M18.0577 7.58398L18.3413 8.44532H19.2592L18.5167 8.97765L18.8003 9.83892L18.0577 9.30665L17.3151 9.83892L17.5988 8.97765L16.8562 8.44532H17.7741L18.0577 7.58398Z" fill="white"/>
<path d="M21.3328 7.58289L21.6222 8.44422H22.5588L21.8011 8.97655L22.0905 9.83782L21.3328 9.30549L20.575 9.83782L20.8645 8.97655L20.1067 8.44422H21.0433L21.3328 7.58289Z" fill="white"/>
<path d="M24.5818 7.58301L24.8712 8.44434H25.8078L25.0501 8.97667L25.3395 9.83794L24.5818 9.30561L23.824 9.83794L24.1135 8.97667L23.3557 8.44434H24.2923L24.5818 7.58301Z" fill="white"/>
<path d="M27.8294 7.58301L28.1187 8.44434H29.0554L28.2977 8.97667L28.5871 9.83794L27.8294 9.30561L27.0716 9.83794L27.361 8.97667L26.6033 8.44434H27.5399L27.8294 7.58301Z" fill="white"/>
<path d="M31.1041 7.58289L31.3877 8.44422H32.3056L31.5631 8.97655L31.8467 9.83782L31.1041 9.30549L30.3615 9.83782L30.6452 8.97655L29.9026 8.44422H30.8204L31.1041 7.58289Z" fill="white"/>
<path fill-rule="evenodd" clip-rule="evenodd" d="M4.98394 23.0868C3.73218 15.3596 7.38543 7.71436 14.699 4.43127L14.7665 4.57767C7.52651 7.82769 3.90346 15.3981 5.14488 23.0614C6.51833 31.5396 13.4504 36.6243 21.9392 36.8694L21.9344 37.0302C13.3794 36.7832 6.3715 31.6525 4.98394 23.0868Z" fill="white"/>
<path d="M13.1138 6.40332C11.7623 6.43372 10.1804 7.18569 9.24707 8.27796C9.99558 8.96376 11.1999 8.71023 12.0666 8.56996C13.3036 8.36983 14.619 7.98209 15.7862 7.43323C15.3063 6.42525 14.0134 6.38312 13.1138 6.40332Z" fill="white"/>
<path d="M12.0503 4.75848C11.2498 5.98888 10.2957 7.21177 9.25748 8.28864C8.38883 7.48411 8.91315 6.14521 9.26768 5.31261C9.90991 3.80395 11.4497 2.50295 13.0595 1.83728C13.5013 2.82908 12.5417 4.00328 12.0503 4.75848Z" fill="white"/>
<path d="M9.20177 9.85371C7.93623 10.2976 6.84873 11.547 6.30273 12.8014C7.21272 13.2189 8.24725 12.616 9.00407 12.2146C10.0433 11.6634 11.1035 10.9029 11.9377 10.0228C11.1839 9.23811 10.0395 9.55998 9.20177 9.85371Z" fill="white"/>
<path d="M7.66759 8.6244C7.39056 10.0277 6.9261 11.4823 6.31612 12.808C5.25139 12.3125 5.29193 10.8935 5.33754 9.9904C5.41537 8.449 6.28936 6.69127 7.50617 5.57422C8.2511 6.36222 7.84408 7.73047 7.66759 8.6244Z" fill="white"/>
<path d="M6.76683 14.3083C5.71228 15.1291 5.07309 16.6502 4.92505 18.0085C5.92262 18.1215 6.71998 17.2258 7.31332 16.6113C8.12109 15.7745 8.88575 14.7251 9.37136 13.6271C8.42041 13.1153 7.45372 13.7736 6.76683 14.3083Z" fill="white"/>
<path d="M4.94025 13.6154C5.12829 15.0325 5.1287 16.5656 4.94059 18.0104C3.78045 17.8698 3.39565 16.4954 3.16836 15.6332C2.77592 14.145 3.03903 12.2226 3.80349 10.7758C4.75883 11.2976 4.82011 12.7096 4.94025 13.6154Z" fill="white"/>
<path d="M5.94013 19.1708C5.10567 20.3768 4.81223 22.2669 5.1875 23.7861C6.2902 23.5285 6.83684 22.2967 7.27576 21.4268C7.85907 20.2706 8.35211 18.9217 8.5286 17.5983C7.33259 17.3527 6.4898 18.3762 5.94013 19.1708Z" fill="white"/>
<path d="M3.74896 19.0487C4.39909 20.5338 4.90646 22.1684 5.20335 23.7823C3.93869 24.0504 3.02849 22.7401 2.4997 21.8713C1.55828 20.3248 1.28403 18.1808 1.62889 16.3307C2.78639 16.5597 3.35281 18.144 3.74896 19.0487Z" fill="white"/>
<path d="M6.52395 24.4179C6.0759 25.881 6.38732 27.87 7.29449 29.2455C8.29138 28.6051 8.42935 27.1956 8.57063 26.185C8.75692 24.8514 8.84462 23.3741 8.6132 21.9912C7.33813 22.1518 6.8232 23.4405 6.52395 24.4179Z" fill="white"/>
<path d="M4.30753 25.0444C5.42618 26.3109 6.45808 27.7549 7.30909 29.2362C6.1549 29.9471 4.80051 28.9758 3.97909 28.2885C2.52186 27.0692 1.57564 24.9969 1.35132 23.0432C2.56402 22.8824 3.63274 24.2804 4.30753 25.0444Z" fill="white"/>
<path d="M8.87442 29.3978C8.97057 31.1008 10.0943 32.8878 11.5905 33.9049C12.3131 32.9288 11.8602 31.4333 11.6137 30.3894C11.2819 28.9838 10.8226 27.5202 10.1401 26.2216C8.94996 26.8421 8.81111 28.2762 8.87442 29.3978Z" fill="white"/>
<path d="M6.86277 30.8362C8.48378 31.7249 10.1001 32.7737 11.603 33.8896C10.703 35.0589 8.90405 34.5927 7.78891 34.2168C5.82376 33.5545 4.07181 31.8085 3.15674 29.8687C4.31694 29.279 5.90518 30.3112 6.86277 30.8362Z" fill="white"/>
<path d="M13.4912 33.5582C14.4641 35.3101 16.6812 36.453 18.769 36.7281C18.9938 35.4545 17.5971 34.1935 16.836 33.3686C15.7524 32.1941 14.6233 30.9753 13.3573 29.9598C12.4089 31.0464 12.9103 32.5123 13.4912 33.5582Z" fill="white"/>
<path d="M12.102 35.7785C14.3136 36.0054 16.5626 36.332 18.7729 36.7086C18.5619 38.3155 15.9774 38.5748 14.804 38.6697C12.3983 38.8642 9.72209 37.9101 7.85864 36.3038C8.78418 35.2293 10.924 35.6577 12.102 35.7785Z" fill="white"/>
<path d="M16.3609 3.08273C14.8761 3.50067 13.1381 4.29353 12.2795 5.75713C13.838 5.58953 15.3697 5.0424 16.8676 4.62553C18.5454 4.15853 20.3121 3.80927 21.9366 3.16467C20.1575 2.4624 18.0604 2.60433 16.3609 3.08273Z" fill="white"/>
<path fill-rule="evenodd" clip-rule="evenodd" d="M45.0867 23.0614C46.3279 15.3981 42.7049 7.82783 35.465 4.57767L35.5326 4.43127C42.8461 7.71443 46.4996 15.3596 45.2475 23.0868C43.8604 31.6525 36.8522 36.7832 28.2972 37.0302L28.2925 36.8694C36.7813 36.6243 43.713 31.5396 45.0867 23.0614Z" fill="white"/>
<path d="M37.1186 6.40332C38.4699 6.43372 40.0517 7.18569 40.9855 8.27796C40.2368 8.96376 39.0321 8.71023 38.1659 8.56996C36.9287 8.36983 35.6132 7.98209 34.4463 7.43323C34.926 6.42525 36.2186 6.38312 37.1186 6.40332Z" fill="white"/>
<path d="M38.1806 4.75848C38.9813 5.98888 39.9353 7.21177 40.9731 8.28864C41.8421 7.48411 41.3177 6.14521 40.963 5.31261C40.3211 3.80395 38.7813 2.50295 37.1711 1.83728C36.7292 2.82908 37.6894 4.00328 38.1806 4.75848Z" fill="white"/>
<path d="M41.0302 9.85371C42.2958 10.2976 43.3829 11.547 43.9289 12.8014C43.0188 13.2189 41.9843 12.616 41.2275 12.2146C40.1884 11.6634 39.1282 10.9029 38.2944 10.0228C39.0478 9.23811 40.1924 9.55998 41.0302 9.85371Z" fill="white"/>
<path d="M42.5636 8.6244C42.8407 10.0277 43.3048 11.4823 43.915 12.808C44.9798 12.3125 44.9393 10.8935 44.8934 9.9904C44.8157 8.449 43.942 6.69127 42.7251 5.57422C41.9798 6.36222 42.3873 7.73047 42.5636 8.6244Z" fill="white"/>
<path d="M43.4639 14.3083C44.5186 15.1291 45.1578 16.6502 45.3058 18.0085C44.3085 18.1215 43.5112 17.2258 42.918 16.6113C42.1099 15.7745 41.345 14.7251 40.8599 13.6271C41.8105 13.1153 42.7774 13.7736 43.4639 14.3083Z" fill="white"/>
<path d="M45.2916 13.6154C45.1031 15.0324 45.1031 16.5656 45.2909 18.0104C46.4511 17.8698 46.8362 16.4954 47.0632 15.6332C47.4558 14.145 47.1923 12.2226 46.4281 10.7758C45.4727 11.2976 45.4112 12.7096 45.2916 13.6154Z" fill="white"/>
<path d="M44.2916 19.1708C45.1261 20.3768 45.4193 22.2669 45.0443 23.7861C43.9416 23.5285 43.395 22.2968 42.9558 21.4268C42.3727 20.2706 41.8795 18.9217 41.7031 17.5983C42.8991 17.3527 43.7423 18.3762 44.2916 19.1708Z" fill="white"/>
<path d="M46.4829 19.0487C45.8329 20.5338 45.3254 22.1684 45.0288 23.7823C46.293 24.0504 47.2031 22.7401 47.7322 21.8713C48.6734 20.3248 48.9477 18.1808 48.6031 16.3307C47.4457 16.5597 46.8788 18.144 46.4829 19.0487Z" fill="white"/>
<path d="M43.7082 24.4182C44.1562 25.8813 43.8454 27.8703 42.9379 29.2457C41.9413 28.6053 41.8028 27.1959 41.6616 26.1853C41.4758 24.8517 41.3879 23.3743 41.619 21.9915C42.894 22.1521 43.4089 23.4408 43.7082 24.4182Z" fill="white"/>
<path d="M45.924 25.0443C44.8057 26.3108 43.774 27.7548 42.9226 29.236C44.0767 29.947 45.4314 28.9757 46.253 28.2884C47.7098 27.0691 48.6564 24.9968 48.8807 23.043C47.6679 22.8822 46.599 24.2802 45.924 25.0443Z" fill="white"/>
<path d="M41.3568 29.3978C41.2608 31.1008 40.1372 32.8878 38.6413 33.9049C37.9183 32.9288 38.3717 31.4334 38.6176 30.3894C38.9494 28.9838 39.4088 27.5202 40.0912 26.2216C41.2818 26.8421 41.4203 28.2762 41.3568 29.3978Z" fill="white"/>
<path d="M43.3698 30.8363C41.7488 31.725 40.1326 32.7738 38.6299 33.8897C39.5299 35.059 41.3285 34.5928 42.4434 34.2169C44.4089 33.5546 46.161 31.8086 47.0758 29.8688C45.9157 29.2791 44.3272 30.3113 43.3698 30.8363Z" fill="white"/>
<path d="M36.7409 33.5584C35.7679 35.3102 33.551 36.4531 31.4629 36.7282C31.2382 35.4546 32.6348 34.1936 33.3963 33.3687C34.4794 32.1942 35.6084 30.9754 36.8747 29.96C37.8233 31.0465 37.3213 32.5124 36.7409 33.5584Z" fill="white"/>
<path d="M38.1293 35.7785C35.9178 36.0054 33.6692 36.332 31.4585 36.7086C31.6696 38.3155 34.2543 38.5748 35.4273 38.6697C37.8334 38.8642 40.5097 37.9101 42.3725 36.3038C41.4475 35.2293 39.3077 35.6577 38.1293 35.7785Z" fill="white"/>
<path d="M33.8697 3.08273C35.3541 3.50067 37.0927 4.29353 37.9508 5.75713C36.3927 5.58953 34.8609 5.0424 33.3629 4.62553C31.6851 4.15853 29.9184 3.80927 28.2939 3.16467C30.0731 2.4624 32.1702 2.60433 33.8697 3.08273Z" fill="white"/>
<path d="M26.0808 2.32523L25.319 0.666626L24.5715 2.29436L22.833 1.23089L23.9501 3.54709H26.7282L27.805 1.23089L26.0808 2.32523Z" fill="white"/>
<path d="M26.711 3.9071H23.9285V4.31224H26.711V3.9071Z" fill="white"/>
<path d="M25.5188 35.2477L25.9672 36.6091H27.4181L26.2443 37.4505L26.6926 38.812L25.5188 37.9706L24.345 38.812L24.7934 37.4505L23.6196 36.6091H25.0705L25.5188 35.2477Z" fill="white"/>
</svg>
