<svg width="18" height="19" viewBox="0 0 18 19" fill="none" xmlns="http://www.w3.org/2000/svg">
<path d="M16 9C16 7.05 15.3208 5.39583 13.9625 4.0375C12.6042 2.67917 10.95 2 9 2V0C10.25 0 11.4208 0.2375 12.5125 0.7125C13.6042 1.1875 14.5542 1.82917 15.3625 2.6375C16.1708 3.44583 16.8125 4.39583 17.2875 5.4875C17.7625 6.57917 18 7.75 18 9H16ZM12 9C12 8.16667 11.7083 7.45833 11.125 6.875C10.5417 6.29167 9.83333 6 9 6V4C10.3833 4 11.5625 4.4875 12.5375 5.4625C13.5125 6.4375 14 7.61667 14 9H12ZM16.95 18.05C14.8667 18.05 12.8083 17.5958 10.775 16.6875C8.74167 15.7792 6.89167 14.4917 5.225 12.825C3.55833 11.1583 2.27083 9.30833 1.3625 7.275C0.454167 5.24167 0 3.18333 0 1.1C0 0.8 0.1 0.55 0.3 0.35C0.5 0.15 0.75 0.05 1.05 0.05H5.1C5.33333 0.05 5.54167 0.129167 5.725 0.2875C5.90833 0.445833 6.01667 0.633333 6.05 0.85L6.7 4.35C6.73333 4.61667 6.725 4.84167 6.675 5.025C6.625 5.20833 6.53333 5.36667 6.4 5.5L3.975 7.95C4.30833 8.56667 4.70417 9.1625 5.1625 9.7375C5.62083 10.3125 6.125 10.8667 6.675 11.4C7.19167 11.9167 7.73333 12.3958 8.3 12.8375C8.86667 13.2792 9.46667 13.6833 10.1 14.05L12.45 11.7C12.6 11.55 12.7958 11.4375 13.0375 11.3625C13.2792 11.2875 13.5167 11.2667 13.75 11.3L17.2 12C17.4333 12.0667 17.625 12.1875 17.775 12.3625C17.925 12.5375 18 12.7333 18 12.95V17C18 17.3 17.9 17.55 17.7 17.75C17.5 17.95 17.25 18.05 16.95 18.05Z" fill="#7A0116"/>
</svg>
